<svg xmlns="http://www.w3.org/2000/svg" xmlns:xlink="http://www.w3.org/1999/xlink" width="300" zoomAndPan="magnify" viewBox="0 0 224.87999 225" height="300" preserveAspectRatio="xMidYMid meet" version="1.0"><defs><g/><clipPath id="4fd359a234"><path d="M 147 37 L 221 37 L 221 98.382812 L 147 98.382812 Z M 147 37 " clip-rule="nonzero"/></clipPath></defs><g fill="#fef4db" fill-opacity="1"><g transform="translate(6.706947, 79.482369)"><g><path d="M 22.78125 1.15625 C 19.125 1.15625 15.703125 0.332031 12.515625 -1.3125 C 11.066406 -2.03125 9.851562 -2.878906 8.875 -3.859375 C 8.15625 -2.671875 7.253906 -1.613281 6.171875 -0.6875 C 5.242188 -0.0195312 4.734375 0.335938 4.640625 0.390625 L 2.703125 0.390625 L 2.703125 -14.28125 L 5.796875 -14.28125 C 6.566406 -11.757812 7.644531 -9.492188 9.03125 -7.484375 C 12.175781 -3.003906 16.242188 -0.765625 21.234375 -0.765625 C 24.171875 -0.765625 26.515625 -1.640625 28.265625 -3.390625 C 30.015625 -5.148438 30.890625 -7.492188 30.890625 -10.421875 C 30.890625 -12.117188 30.382812 -13.632812 29.375 -14.96875 C 28.375 -16.3125 27.128906 -17.5 25.640625 -18.53125 C 24.148438 -19.5625 22.066406 -20.847656 19.390625 -22.390625 C 15.984375 -24.296875 13.222656 -26.019531 11.109375 -27.5625 C 9.003906 -29.113281 7.203125 -31.0625 5.703125 -33.40625 C 4.210938 -35.75 3.46875 -38.515625 3.46875 -41.703125 C 3.46875 -44.222656 4.175781 -46.5 5.59375 -48.53125 C 7.007812 -50.570312 9.132812 -52.195312 11.96875 -53.40625 C 14.800781 -54.613281 18.273438 -55.21875 22.390625 -55.21875 C 25.378906 -55.21875 28.367188 -54.367188 31.359375 -52.671875 C 32.492188 -52.054688 33.625 -51.234375 34.75 -50.203125 C 35.625 -51.535156 36.523438 -52.59375 37.453125 -53.375 C 38.378906 -54.039062 38.894531 -54.398438 39 -54.453125 L 40.9375 -54.453125 L 40.9375 -39.78125 L 37.84375 -39.78125 C 37.175781 -42.25 36.171875 -44.488281 34.828125 -46.5 C 33.597656 -48.457031 32.066406 -50.078125 30.234375 -51.359375 C 28.410156 -52.648438 26.3125 -53.296875 23.9375 -53.296875 C 21.9375 -53.296875 20.210938 -52.492188 18.765625 -50.890625 C 17.328125 -49.296875 16.609375 -47.265625 16.609375 -44.796875 C 16.609375 -42.890625 17.160156 -41.175781 18.265625 -39.65625 C 19.367188 -38.132812 20.734375 -36.804688 22.359375 -35.671875 C 23.984375 -34.546875 26.1875 -33.1875 28.96875 -31.59375 C 32.207031 -29.738281 34.832031 -28.085938 36.84375 -26.640625 C 38.851562 -25.203125 40.550781 -23.414062 41.9375 -21.28125 C 43.332031 -19.144531 44.03125 -16.6875 44.03125 -13.90625 C 44.03125 -11.125 43.226562 -8.585938 41.625 -6.296875 C 40.03125 -4.003906 37.632812 -2.1875 34.4375 -0.84375 C 31.25 0.488281 27.363281 1.15625 22.78125 1.15625 Z M 22.78125 1.15625 "/></g></g></g><g fill="#fef4db" fill-opacity="1"><g transform="translate(52.664908, 79.482369)"><g><path d="M 23.5625 1.15625 C 17.175781 1.15625 12.164062 -0.65625 8.53125 -4.28125 C 4.90625 -7.914062 3.09375 -12.925781 3.09375 -19.3125 C 3.09375 -25.695312 4.90625 -30.703125 8.53125 -34.328125 C 12.164062 -37.960938 17.175781 -39.78125 23.5625 -39.78125 C 29.945312 -39.78125 34.953125 -37.960938 38.578125 -34.328125 C 42.210938 -30.703125 44.03125 -25.695312 44.03125 -19.3125 C 44.03125 -12.925781 42.210938 -7.914062 38.578125 -4.28125 C 34.953125 -0.65625 29.945312 1.15625 23.5625 1.15625 Z M 23.5625 -0.390625 C 25.613281 -0.390625 27.347656 -1.828125 28.765625 -4.703125 C 30.179688 -7.585938 30.890625 -12.457031 30.890625 -19.3125 C 30.890625 -26.15625 30.179688 -31.019531 28.765625 -33.90625 C 27.347656 -36.789062 25.613281 -38.234375 23.5625 -38.234375 C 21.5 -38.234375 19.757812 -36.789062 18.34375 -33.90625 C 16.925781 -31.019531 16.21875 -26.15625 16.21875 -19.3125 C 16.21875 -12.457031 16.925781 -7.585938 18.34375 -4.703125 C 19.757812 -1.828125 21.5 -0.390625 23.5625 -0.390625 Z M 23.5625 -0.390625 "/></g></g></g><g fill="#fef4db" fill-opacity="1"><g transform="translate(99.781467, 79.482369)"><g><path d="M 11.578125 16.609375 C 9.265625 16.609375 7.460938 15.988281 6.171875 14.75 C 4.890625 13.507812 4.25 11.8125 4.25 9.65625 C 4.25 7.695312 4.773438 6.175781 5.828125 5.09375 C 6.890625 4.007812 8.296875 3.46875 10.046875 3.46875 C 10.453125 3.46875 10.859375 3.503906 11.265625 3.578125 C 11.679688 3.660156 11.96875 3.703125 12.125 3.703125 L 13.125 3.859375 L 13.125 14.28125 C 14.625 14.03125 15.9375 13.207031 17.0625 11.8125 C 18.195312 10.425781 19.460938 8.035156 20.859375 4.640625 L 22.390625 0.765625 L 2.3125 -36.296875 L -1.546875 -37.453125 L -1.546875 -38.609375 L 8.109375 -38.609375 C 10.785156 -38.609375 12.910156 -38.054688 14.484375 -36.953125 C 16.054688 -35.847656 17.40625 -34.210938 18.53125 -32.046875 L 28.1875 -14.21875 L 36.296875 -35.140625 L 30.5 -37.453125 L 30.5 -38.609375 L 44.796875 -38.609375 L 44.796875 -37.453125 L 38.609375 -35.140625 L 23.171875 4.640625 C 21.523438 8.859375 19.773438 11.90625 17.921875 13.78125 C 16.066406 15.664062 13.953125 16.609375 11.578125 16.609375 Z M 11.578125 16.609375 "/></g></g></g><g fill="#fef4db" fill-opacity="1"><g transform="translate(6.706947, 156.722598)"><g><path d="M 22.78125 1.15625 C 19.125 1.15625 15.703125 0.332031 12.515625 -1.3125 C 11.066406 -2.03125 9.851562 -2.878906 8.875 -3.859375 C 8.15625 -2.671875 7.253906 -1.613281 6.171875 -0.6875 C 5.242188 -0.0195312 4.734375 0.335938 4.640625 0.390625 L 2.703125 0.390625 L 2.703125 -14.28125 L 5.796875 -14.28125 C 6.566406 -11.757812 7.644531 -9.492188 9.03125 -7.484375 C 12.175781 -3.003906 16.242188 -0.765625 21.234375 -0.765625 C 24.171875 -0.765625 26.515625 -1.640625 28.265625 -3.390625 C 30.015625 -5.148438 30.890625 -7.492188 30.890625 -10.421875 C 30.890625 -12.117188 30.382812 -13.632812 29.375 -14.96875 C 28.375 -16.3125 27.128906 -17.5 25.640625 -18.53125 C 24.148438 -19.5625 22.066406 -20.847656 19.390625 -22.390625 C 15.984375 -24.296875 13.222656 -26.019531 11.109375 -27.5625 C 9.003906 -29.113281 7.203125 -31.0625 5.703125 -33.40625 C 4.210938 -35.75 3.46875 -38.515625 3.46875 -41.703125 C 3.46875 -44.222656 4.175781 -46.5 5.59375 -48.53125 C 7.007812 -50.570312 9.132812 -52.195312 11.96875 -53.40625 C 14.800781 -54.613281 18.273438 -55.21875 22.390625 -55.21875 C 25.378906 -55.21875 28.367188 -54.367188 31.359375 -52.671875 C 32.492188 -52.054688 33.625 -51.234375 34.75 -50.203125 C 35.625 -51.535156 36.523438 -52.59375 37.453125 -53.375 C 38.378906 -54.039062 38.894531 -54.398438 39 -54.453125 L 40.9375 -54.453125 L 40.9375 -39.78125 L 37.84375 -39.78125 C 37.175781 -42.25 36.171875 -44.488281 34.828125 -46.5 C 33.597656 -48.457031 32.066406 -50.078125 30.234375 -51.359375 C 28.410156 -52.648438 26.3125 -53.296875 23.9375 -53.296875 C 21.9375 -53.296875 20.210938 -52.492188 18.765625 -50.890625 C 17.328125 -49.296875 16.609375 -47.265625 16.609375 -44.796875 C 16.609375 -42.890625 17.160156 -41.175781 18.265625 -39.65625 C 19.367188 -38.132812 20.734375 -36.804688 22.359375 -35.671875 C 23.984375 -34.546875 26.1875 -33.1875 28.96875 -31.59375 C 32.207031 -29.738281 34.832031 -28.085938 36.84375 -26.640625 C 38.851562 -25.203125 40.550781 -23.414062 41.9375 -21.28125 C 43.332031 -19.144531 44.03125 -16.6875 44.03125 -13.90625 C 44.03125 -11.125 43.226562 -8.585938 41.625 -6.296875 C 40.03125 -4.003906 37.632812 -2.1875 34.4375 -0.84375 C 31.25 0.488281 27.363281 1.15625 22.78125 1.15625 Z M 22.78125 1.15625 "/></g></g></g><g fill="#fef4db" fill-opacity="1"><g transform="translate(52.664908, 156.722598)"><g><path d="M 23.5625 1.15625 C 17.175781 1.15625 12.164062 -0.65625 8.53125 -4.28125 C 4.90625 -7.914062 3.09375 -12.925781 3.09375 -19.3125 C 3.09375 -25.695312 4.90625 -30.703125 8.53125 -34.328125 C 12.164062 -37.960938 17.175781 -39.78125 23.5625 -39.78125 C 29.945312 -39.78125 34.953125 -37.960938 38.578125 -34.328125 C 42.210938 -30.703125 44.03125 -25.695312 44.03125 -19.3125 C 44.03125 -12.925781 42.210938 -7.914062 38.578125 -4.28125 C 34.953125 -0.65625 29.945312 1.15625 23.5625 1.15625 Z M 23.5625 -0.390625 C 25.613281 -0.390625 27.347656 -1.828125 28.765625 -4.703125 C 30.179688 -7.585938 30.890625 -12.457031 30.890625 -19.3125 C 30.890625 -26.15625 30.179688 -31.019531 28.765625 -33.90625 C 27.347656 -36.789062 25.613281 -38.234375 23.5625 -38.234375 C 21.5 -38.234375 19.757812 -36.789062 18.34375 -33.90625 C 16.925781 -31.019531 16.21875 -26.15625 16.21875 -19.3125 C 16.21875 -12.457031 16.925781 -7.585938 18.34375 -4.703125 C 19.757812 -1.828125 21.5 -0.390625 23.5625 -0.390625 Z M 23.5625 -0.390625 "/></g></g></g><g fill="#fef4db" fill-opacity="1"><g transform="translate(99.781467, 156.722598)"><g><path d="M 23.9375 1.15625 C 17.351562 1.15625 12.234375 -0.65625 8.578125 -4.28125 C 4.921875 -7.914062 3.09375 -12.925781 3.09375 -19.3125 C 3.09375 -25.695312 4.921875 -30.703125 8.578125 -34.328125 C 12.234375 -37.960938 17.351562 -39.78125 23.9375 -39.78125 C 28.675781 -39.78125 32.242188 -38.953125 34.640625 -37.296875 C 37.035156 -35.648438 38.234375 -33.644531 38.234375 -31.28125 C 38.234375 -29.53125 37.703125 -28.125 36.640625 -27.0625 C 35.585938 -26.007812 34.1875 -25.484375 32.4375 -25.484375 C 31.71875 -25.484375 31 -25.535156 30.28125 -25.640625 L 29.34375 -25.875 L 29.34375 -37.453125 L 28.265625 -37.84375 C 27.492188 -38.101562 26.566406 -38.234375 25.484375 -38.234375 C 22.546875 -38.234375 20.265625 -36.84375 18.640625 -34.0625 C 17.023438 -31.28125 16.21875 -26.363281 16.21875 -19.3125 C 16.21875 -12.457031 17.023438 -7.648438 18.640625 -4.890625 C 20.265625 -2.140625 22.546875 -0.765625 25.484375 -0.765625 C 27.492188 -0.765625 29.359375 -1.238281 31.078125 -2.1875 C 32.804688 -3.144531 34.171875 -4.410156 35.171875 -5.984375 C 36.179688 -7.554688 36.6875 -9.164062 36.6875 -10.8125 L 38.609375 -10.8125 C 38.609375 -8.75 37.988281 -6.789062 36.75 -4.9375 C 35.519531 -3.082031 33.796875 -1.601562 31.578125 -0.5 C 29.367188 0.601562 26.820312 1.15625 23.9375 1.15625 Z M 23.9375 1.15625 "/></g></g></g><g fill="#fef4db" fill-opacity="1"><g transform="translate(140.718805, 156.722598)"><g><path d="M 3.09375 -1.15625 L 7.71875 -2.3125 L 7.71875 -36.296875 L 3.09375 -37.453125 L 3.09375 -38.609375 L 13.125 -38.609375 C 17.757812 -38.609375 20.078125 -36.296875 20.078125 -31.671875 L 20.078125 -2.3125 L 24.71875 -1.15625 L 24.71875 0 L 3.09375 0 Z M 13.125 -43.25 C 11.582031 -43.25 10.296875 -43.765625 9.265625 -44.796875 C 8.234375 -45.828125 7.71875 -47.113281 7.71875 -48.65625 C 7.71875 -50.195312 8.234375 -51.484375 9.265625 -52.515625 C 10.296875 -53.546875 11.582031 -54.0625 13.125 -54.0625 C 14.664062 -54.0625 15.953125 -53.546875 16.984375 -52.515625 C 18.015625 -51.484375 18.53125 -50.195312 18.53125 -48.65625 C 18.53125 -47.113281 18.015625 -45.828125 16.984375 -44.796875 C 15.953125 -43.765625 14.664062 -43.25 13.125 -43.25 Z M 13.125 -43.25 "/></g></g></g><g fill="#fef4db" fill-opacity="1"><g transform="translate(166.980491, 156.722598)"><g><path d="M 18.15625 1.15625 C 13.570312 1.15625 10.039062 0.175781 7.5625 -1.78125 C 5.09375 -3.738281 3.859375 -6.234375 3.859375 -9.265625 C 3.859375 -11.273438 4.296875 -13.257812 5.171875 -15.21875 C 5.535156 -16.144531 6 -16.992188 6.5625 -17.765625 C 8.675781 -18.273438 10.96875 -18.738281 13.4375 -19.15625 C 19 -20.082031 23.914062 -20.648438 28.1875 -20.859375 L 28.1875 -23.171875 C 28.1875 -28.890625 27.488281 -32.828125 26.09375 -34.984375 C 24.707031 -37.148438 22.570312 -38.234375 19.6875 -38.234375 C 18.613281 -38.234375 17.691406 -38.101562 16.921875 -37.84375 L 15.828125 -37.453125 L 15.828125 -25.875 L 14.828125 -25.640625 C 14.003906 -25.535156 13.3125 -25.484375 12.75 -25.484375 C 11 -25.484375 9.59375 -26.007812 8.53125 -27.0625 C 7.476562 -28.125 6.953125 -29.53125 6.953125 -31.28125 C 6.953125 -33.644531 8.148438 -35.648438 10.546875 -37.296875 C 12.941406 -38.953125 16.503906 -39.78125 21.234375 -39.78125 C 25.253906 -39.78125 28.71875 -39.070312 31.625 -37.65625 C 34.53125 -36.238281 36.742188 -34.28125 38.265625 -31.78125 C 39.785156 -29.28125 40.546875 -26.410156 40.546875 -23.171875 L 40.546875 -2.3125 L 45.1875 -1.15625 L 45.1875 0 L 38.234375 0 C 35.140625 0 32.742188 -0.953125 31.046875 -2.859375 C 30.328125 -3.628906 29.757812 -4.609375 29.34375 -5.796875 C 28.625 -4.503906 27.773438 -3.34375 26.796875 -2.3125 C 24.484375 0 21.601562 1.15625 18.15625 1.15625 Z M 21.234375 -1.546875 C 23.140625 -1.546875 24.867188 -2.578125 26.421875 -4.640625 C 26.984375 -5.410156 27.570312 -6.4375 28.1875 -7.71875 L 28.1875 -18.921875 C 25.820312 -18.921875 23.554688 -18.789062 21.390625 -18.53125 C 19.796875 -18.332031 18.71875 -18.207031 18.15625 -18.15625 C 17.894531 -17.582031 17.632812 -16.804688 17.375 -15.828125 C 16.863281 -13.867188 16.609375 -11.941406 16.609375 -10.046875 C 16.609375 -7.160156 17.046875 -5.019531 17.921875 -3.625 C 18.796875 -2.238281 19.898438 -1.546875 21.234375 -1.546875 Z M 21.234375 -1.546875 "/></g></g></g><g fill="#fef4db" fill-opacity="1"><g transform="translate(6.706947, 183.98386)"><g><path d="M 5.910156 -3.257812 L 5.910156 -13.179688 L 4.554688 -13.179688 L 4.554688 -3.257812 C 4.554688 -2.421875 4.226562 -1.839844 3.605469 -1.492188 C 3.082031 -1.183594 2.441406 -1.085938 1.6875 -1.183594 C 0.988281 -1.261719 0.445312 -1.453125 0.0976562 -1.765625 L 0.0976562 -0.269531 C 0.214844 -0.15625 0.445312 -0.0585938 0.792969 0.0390625 C 1.144531 0.136719 1.53125 0.195312 1.957031 0.195312 C 3.003906 0.234375 3.875 0.0195312 4.574219 -0.464844 C 5.464844 -1.046875 5.910156 -1.976562 5.910156 -3.257812 Z M 5.910156 -3.257812 "/></g></g></g><g fill="#fef4db" fill-opacity="1"><g transform="translate(16.766458, 183.98386)"><g><path d="M 10.988281 -4.359375 L 10.988281 -13.179688 L 9.632812 -13.179688 L 9.632812 -4.167969 C 9.632812 -3.625 9.535156 -3.179688 9.34375 -2.808594 C 8.78125 -1.726562 7.695312 -1.183594 6.085938 -1.183594 C 5.039062 -1.183594 4.207031 -1.414062 3.585938 -1.878906 C 2.867188 -2.402344 2.519531 -3.160156 2.519531 -4.167969 L 2.519531 -13.179688 L 1.164062 -13.179688 L 1.164062 -4.359375 C 1.164062 -2.925781 1.628906 -1.800781 2.558594 -0.988281 C 3.429688 -0.214844 4.613281 0.175781 6.085938 0.175781 C 7.539062 0.175781 8.703125 -0.214844 9.59375 -0.988281 C 10.523438 -1.800781 10.988281 -2.925781 10.988281 -4.359375 Z M 10.988281 -4.359375 "/></g></g></g><g fill="#fef4db" fill-opacity="1"><g transform="translate(31.903831, 183.98386)"><g><path d="M 2.808594 -9.710938 L 10.214844 0.8125 L 10.214844 -13.179688 L 8.859375 -13.179688 L 8.859375 -3.488281 L 1.453125 -14.015625 L 1.453125 0 L 2.808594 0 Z M 2.808594 -9.710938 "/></g></g></g><g fill="#fef4db" fill-opacity="1"><g transform="translate(46.556677, 183.98386)"><g><path d="M 0.386719 -11.960938 L 3.585938 -11.960938 L 3.585938 -0.0390625 L 4.941406 -0.0390625 L 4.941406 -11.960938 L 8.140625 -11.960938 L 8.140625 -13.21875 L 0.386719 -13.21875 Z M 0.386719 -11.960938 "/></g></g></g><g fill="#fef4db" fill-opacity="1"><g transform="translate(58.06978, 183.98386)"><g><path d="M 3.585938 -4.84375 L 5.988281 -10.914062 L 8.375 -4.84375 Z M 11.765625 0 L 5.988281 -14.089844 L 0.195312 0 L 1.667969 0 L 3.082031 -3.585938 L 8.878906 -3.585938 L 10.292969 0 Z M 11.765625 0 "/></g></g></g><g fill="#fef4db" fill-opacity="1"><g transform="translate(73.013333, 183.98386)"><g><path d="M 5.097656 -6.203125 C 6.804688 -5.796875 7.964844 -5.351562 8.585938 -4.84375 C 9.011719 -4.496094 9.226562 -4.050781 9.226562 -3.507812 C 9.226562 -2.964844 9.109375 -2.519531 8.878906 -2.210938 C 8.296875 -1.394531 7.25 -0.988281 5.777344 -0.988281 C 3.722656 -0.988281 2.558594 -1.6875 2.304688 -3.082031 L 0.71875 -3.082031 C 1.183594 -0.851562 2.867188 0.253906 5.777344 0.253906 C 7.074219 0.253906 8.160156 -0.0195312 9.03125 -0.601562 C 10.078125 -1.277344 10.621094 -2.289062 10.621094 -3.605469 C 10.621094 -4.691406 10.195312 -5.523438 9.34375 -6.105469 C 8.742188 -6.53125 7.773438 -6.917969 6.433594 -7.269531 C 5.078125 -7.617188 4.207031 -7.90625 3.800781 -8.121094 C 2.90625 -8.566406 2.460938 -9.1875 2.480469 -10 C 2.480469 -10.429688 2.558594 -10.796875 2.753906 -11.066406 C 3.257812 -11.824219 4.148438 -12.210938 5.425781 -12.210938 C 7.230469 -12.210938 8.257812 -11.628906 8.527344 -10.503906 L 10 -10.503906 C 9.515625 -12.40625 7.984375 -13.375 5.425781 -13.375 C 4.265625 -13.375 3.238281 -13.0625 2.382812 -12.445312 C 1.511719 -11.824219 1.066406 -10.914062 1.066406 -9.671875 C 1.066406 -7.984375 2.421875 -6.824219 5.097656 -6.203125 Z M 5.097656 -6.203125 "/></g></g></g><g fill="#fef4db" fill-opacity="1"><g transform="translate(87.123497, 183.98386)"><g/></g></g><g fill="#fef4db" fill-opacity="1"><g transform="translate(95.341807, 183.98386)"><g><path d="M 13.546875 -4.03125 L 12.054688 -4.03125 C 11.589844 -3.179688 10.953125 -2.480469 10.136719 -1.976562 C 9.324219 -1.453125 8.414062 -1.203125 7.441406 -1.203125 C 5.988281 -1.203125 4.75 -1.726562 3.722656 -2.808594 C 2.714844 -3.835938 2.230469 -5.097656 2.230469 -6.570312 C 2.230469 -8.042969 2.714844 -9.304688 3.722656 -10.351562 C 4.1875 -10.835938 4.75 -11.222656 5.386719 -11.511719 C 6.007812 -11.804688 6.628906 -11.960938 7.25 -11.960938 C 7.851562 -11.960938 8.375 -11.882812 8.839844 -11.746094 C 10.253906 -11.320312 11.320312 -10.464844 12.035156 -9.167969 L 13.527344 -9.167969 C 13.023438 -10.410156 12.230469 -11.417969 11.125 -12.191406 C 10 -12.96875 8.78125 -13.355469 7.441406 -13.355469 C 5.601562 -13.355469 4.050781 -12.675781 2.773438 -11.339844 C 2.171875 -10.71875 1.707031 -9.980469 1.375 -9.167969 C 1.027344 -8.355469 0.871094 -7.480469 0.871094 -6.570312 C 0.871094 -4.710938 1.492188 -3.140625 2.773438 -1.820312 C 4.050781 -0.464844 5.601562 0.195312 7.441406 0.195312 C 8.78125 0.195312 10 -0.195312 11.144531 -0.96875 C 12.25 -1.746094 13.042969 -2.753906 13.546875 -4.03125 Z M 13.546875 -4.03125 "/></g></g></g><g fill="#fef4db" fill-opacity="1"><g transform="translate(112.45605, 183.98386)"><g><path d="M 2.808594 -6.511719 L 2.808594 -11.882812 L 5.871094 -11.882812 C 6.667969 -11.882812 7.308594 -11.628906 7.792969 -11.125 C 8.257812 -10.621094 8.507812 -10 8.507812 -9.226562 C 8.507812 -8.449219 8.257812 -7.8125 7.753906 -7.289062 C 7.25 -6.765625 6.628906 -6.511719 5.871094 -6.511719 Z M 9.867188 -9.207031 C 9.867188 -10.332031 9.4375 -11.300781 8.625 -12.054688 C 7.832031 -12.792969 6.84375 -13.179688 5.679688 -13.179688 L 1.453125 -13.179688 L 1.453125 0 L 2.808594 0 L 2.808594 -5.214844 L 4.378906 -5.214844 L 8.257812 0 L 10.078125 0 L 6.007812 -5.214844 C 7.035156 -5.273438 7.90625 -5.640625 8.625 -6.320312 C 9.4375 -7.074219 9.867188 -8.042969 9.867188 -9.207031 Z M 9.867188 -9.207031 "/></g></g></g><g fill="#fef4db" fill-opacity="1"><g transform="translate(125.984793, 183.98386)"><g><path d="M 9.285156 0 L 9.285156 -1.261719 L 2.808594 -1.261719 L 2.808594 -5.949219 L 9.089844 -5.949219 L 9.089844 -7.230469 L 2.808594 -7.230469 L 2.808594 -11.921875 L 9.285156 -11.921875 L 9.285156 -13.179688 L 1.453125 -13.179688 L 1.453125 0 Z M 9.285156 0 "/></g></g></g><g fill="#fef4db" fill-opacity="1"><g transform="translate(139.707338, 183.98386)"><g><path d="M 13.546875 -4.03125 L 12.054688 -4.03125 C 11.589844 -3.179688 10.953125 -2.480469 10.136719 -1.976562 C 9.324219 -1.453125 8.414062 -1.203125 7.441406 -1.203125 C 5.988281 -1.203125 4.75 -1.726562 3.722656 -2.808594 C 2.714844 -3.835938 2.230469 -5.097656 2.230469 -6.570312 C 2.230469 -8.042969 2.714844 -9.304688 3.722656 -10.351562 C 4.1875 -10.835938 4.75 -11.222656 5.386719 -11.511719 C 6.007812 -11.804688 6.628906 -11.960938 7.25 -11.960938 C 7.851562 -11.960938 8.375 -11.882812 8.839844 -11.746094 C 10.253906 -11.320312 11.320312 -10.464844 12.035156 -9.167969 L 13.527344 -9.167969 C 13.023438 -10.410156 12.230469 -11.417969 11.125 -12.191406 C 10 -12.96875 8.78125 -13.355469 7.441406 -13.355469 C 5.601562 -13.355469 4.050781 -12.675781 2.773438 -11.339844 C 2.171875 -10.71875 1.707031 -9.980469 1.375 -9.167969 C 1.027344 -8.355469 0.871094 -7.480469 0.871094 -6.570312 C 0.871094 -4.710938 1.492188 -3.140625 2.773438 -1.820312 C 4.050781 -0.464844 5.601562 0.195312 7.441406 0.195312 C 8.78125 0.195312 10 -0.195312 11.144531 -0.96875 C 12.25 -1.746094 13.042969 -2.753906 13.546875 -4.03125 Z M 13.546875 -4.03125 "/></g></g></g><g fill="#fef4db" fill-opacity="1"><g transform="translate(156.821581, 183.98386)"><g><path d="M 9.285156 0 L 9.285156 -1.261719 L 2.808594 -1.261719 L 2.808594 -5.949219 L 9.089844 -5.949219 L 9.089844 -7.230469 L 2.808594 -7.230469 L 2.808594 -11.921875 L 9.285156 -11.921875 L 9.285156 -13.179688 L 1.453125 -13.179688 L 1.453125 0 Z M 9.285156 0 "/></g></g></g><g fill="#fef4db" fill-opacity="1"><g transform="translate(170.544126, 183.98386)"><g><path d="M 13.605469 0 L 14.984375 0 L 11.921875 -14.050781 L 7.597656 -2.773438 L 3.277344 -14.050781 L 0.195312 0 L 1.589844 0 L 3.625 -9.382812 L 7.597656 0.773438 L 11.550781 -9.382812 Z M 13.605469 0 "/></g></g></g><g fill="#fef4db" fill-opacity="1"><g transform="translate(188.704945, 183.98386)"><g><path d="M 13.0625 -6.628906 C 13.0625 -5.117188 12.519531 -3.835938 11.472656 -2.792969 C 10.410156 -1.726562 9.128906 -1.203125 7.636719 -1.203125 C 6.144531 -1.203125 4.863281 -1.726562 3.820312 -2.792969 C 2.753906 -3.835938 2.230469 -5.117188 2.230469 -6.628906 C 2.230469 -8.101562 2.753906 -9.382812 3.820312 -10.449219 C 4.863281 -11.492188 6.144531 -12.035156 7.636719 -12.035156 C 9.128906 -12.035156 10.410156 -11.492188 11.472656 -10.449219 C 12.519531 -9.382812 13.0625 -8.101562 13.0625 -6.628906 Z M 14.421875 -6.628906 C 14.421875 -7.558594 14.226562 -8.429688 13.878906 -9.265625 C 13.527344 -10.078125 13.042969 -10.796875 12.425781 -11.417969 C 11.804688 -12.015625 11.085938 -12.5 10.273438 -12.851562 C 9.4375 -13.199219 8.566406 -13.394531 7.636719 -13.394531 C 6.707031 -13.394531 5.816406 -13.199219 5 -12.851562 C 4.1875 -12.5 3.46875 -12.015625 2.847656 -11.417969 C 2.230469 -10.796875 1.746094 -10.078125 1.394531 -9.265625 C 1.046875 -8.429688 0.871094 -7.558594 0.871094 -6.628906 C 0.871094 -5.699219 1.046875 -4.808594 1.394531 -3.992188 C 1.746094 -3.160156 2.230469 -2.441406 2.847656 -1.820312 C 3.46875 -1.203125 4.1875 -0.71875 5 -0.367188 C 5.816406 -0.0195312 6.707031 0.15625 7.636719 0.15625 C 8.566406 0.15625 9.4375 -0.0195312 10.273438 -0.367188 C 11.085938 -0.71875 11.804688 -1.203125 12.425781 -1.820312 C 13.042969 -2.441406 13.527344 -3.160156 13.878906 -3.992188 C 14.226562 -4.808594 14.421875 -5.699219 14.421875 -6.628906 Z M 14.421875 -6.628906 "/></g></g></g><g fill="#fef4db" fill-opacity="1"><g transform="translate(206.982056, 183.98386)"><g><path d="M 5.097656 -6.203125 C 6.804688 -5.796875 7.964844 -5.351562 8.585938 -4.84375 C 9.011719 -4.496094 9.226562 -4.050781 9.226562 -3.507812 C 9.226562 -2.964844 9.109375 -2.519531 8.878906 -2.210938 C 8.296875 -1.394531 7.25 -0.988281 5.777344 -0.988281 C 3.722656 -0.988281 2.558594 -1.6875 2.304688 -3.082031 L 0.71875 -3.082031 C 1.183594 -0.851562 2.867188 0.253906 5.777344 0.253906 C 7.074219 0.253906 8.160156 -0.0195312 9.03125 -0.601562 C 10.078125 -1.277344 10.621094 -2.289062 10.621094 -3.605469 C 10.621094 -4.691406 10.195312 -5.523438 9.34375 -6.105469 C 8.742188 -6.53125 7.773438 -6.917969 6.433594 -7.269531 C 5.078125 -7.617188 4.207031 -7.90625 3.800781 -8.121094 C 2.90625 -8.566406 2.460938 -9.1875 2.480469 -10 C 2.480469 -10.429688 2.558594 -10.796875 2.753906 -11.066406 C 3.257812 -11.824219 4.148438 -12.210938 5.425781 -12.210938 C 7.230469 -12.210938 8.257812 -11.628906 8.527344 -10.503906 L 10 -10.503906 C 9.515625 -12.40625 7.984375 -13.375 5.425781 -13.375 C 4.265625 -13.375 3.238281 -13.0625 2.382812 -12.445312 C 1.511719 -11.824219 1.066406 -10.914062 1.066406 -9.671875 C 1.066406 -7.984375 2.421875 -6.824219 5.097656 -6.203125 Z M 5.097656 -6.203125 "/></g></g></g><g clip-path="url(#4fd359a234)"><path fill="#fef4db" d="M 216.992188 48.558594 C 214.976562 45.179688 212.242188 42.539062 208.785156 40.636719 C 207.226562 39.800781 205.589844 39.175781 203.871094 38.757812 C 202.175781 38.300781 200.453125 38.054688 198.695312 38.019531 C 196.941406 37.984375 195.207031 38.15625 193.492188 38.539062 C 191.777344 38.921875 190.136719 39.503906 188.566406 40.285156 C 186.996094 41.070312 185.542969 42.027344 184.210938 43.160156 C 184.125 43.230469 184.027344 43.292969 183.9375 43.355469 C 183.894531 43.375 183.855469 43.386719 183.8125 43.398438 C 176.96875 37.933594 169.316406 36.355469 161.082031 39.632812 C 157.816406 40.917969 154.996094 42.847656 152.617188 45.414062 C 146.75 51.980469 147.175781 60.300781 147.316406 62.207031 C 147.664062 64.730469 148.402344 67.136719 149.523438 69.425781 C 150.710938 71.742188 152.238281 73.816406 154.105469 75.640625 C 154.332031 75.84375 154.492188 76.089844 154.582031 76.375 C 154.679688 76.992188 154.882812 77.574219 155.183594 78.121094 C 155.488281 78.667969 155.875 79.148438 156.351562 79.558594 C 156.824219 79.96875 157.351562 80.289062 157.9375 80.515625 C 158.523438 80.738281 159.132812 80.859375 159.761719 80.875 C 159.859375 80.890625 159.957031 80.910156 160.054688 80.9375 C 160.347656 84.28125 162.167969 86.164062 165.667969 86.464844 C 165.707031 86.742188 165.753906 87.035156 165.789062 87.328125 C 165.855469 87.914062 166.015625 88.46875 166.273438 89 C 166.53125 89.527344 166.871094 90 167.289062 90.414062 C 167.710938 90.828125 168.191406 91.160156 168.726562 91.410156 C 169.261719 91.660156 169.824219 91.816406 170.414062 91.871094 C 171.089844 91.941406 171.328125 92.144531 171.402344 92.859375 C 171.441406 93.339844 171.546875 93.808594 171.722656 94.257812 C 171.902344 94.710938 172.140625 95.125 172.441406 95.507812 C 172.742188 95.886719 173.089844 96.21875 173.492188 96.496094 C 173.890625 96.773438 174.320312 96.988281 174.78125 97.140625 C 175.269531 97.335938 175.769531 97.457031 176.292969 97.5 C 176.8125 97.542969 177.332031 97.511719 177.84375 97.402344 C 178.351562 97.289062 178.835938 97.109375 179.292969 96.851562 C 179.75 96.597656 180.15625 96.28125 180.515625 95.902344 C 181.15625 95.292969 181.734375 94.613281 182.570312 93.722656 C 183.542969 94.796875 184.355469 95.78125 185.261719 96.671875 C 185.820312 97.242188 186.476562 97.65625 187.226562 97.917969 C 187.980469 98.175781 188.753906 98.257812 189.546875 98.15625 C 190.132812 98.101562 190.699219 97.949219 191.234375 97.703125 C 191.773438 97.457031 192.257812 97.132812 192.683594 96.726562 C 193.113281 96.324219 193.464844 95.859375 193.734375 95.335938 C 194.007812 94.8125 194.183594 94.261719 194.269531 93.679688 C 194.324219 93.355469 194.363281 93.027344 194.390625 92.828125 C 195.359375 92.59375 196.304688 92.285156 197.222656 91.898438 C 198.027344 91.496094 198.679688 90.917969 199.171875 90.167969 C 199.664062 89.414062 199.929688 88.589844 199.972656 87.695312 C 200.035156 87.394531 200.207031 87.1875 200.492188 87.070312 C 203.742188 86.523438 205.121094 85.140625 205.59375 81.855469 C 205.613281 81.769531 205.640625 81.6875 205.675781 81.605469 C 206.285156 81.546875 206.878906 81.421875 207.460938 81.226562 L 207.613281 81.15625 C 207.964844 81.027344 208.296875 80.867188 208.617188 80.671875 C 208.671875 80.644531 208.722656 80.613281 208.777344 80.582031 C 208.832031 80.554688 208.886719 80.527344 208.933594 80.492188 C 208.96875 80.46875 208.996094 80.441406 209.027344 80.421875 C 209.136719 80.347656 209.242188 80.265625 209.34375 80.175781 C 209.664062 79.933594 209.953125 79.65625 210.214844 79.347656 C 210.46875 79.03125 210.6875 78.699219 210.878906 78.34375 C 211.957031 77.140625 213.15625 76.0625 214.261719 74.894531 C 215.828125 73.324219 217.09375 71.542969 218.066406 69.554688 C 219.152344 67.371094 219.886719 65.078125 220.269531 62.671875 C 221.289062 55.746094 217.269531 49.015625 216.992188 48.558594 Z M 161.554688 77.421875 C 161.320312 77.636719 161.054688 77.800781 160.753906 77.910156 C 160.457031 78.023438 160.148438 78.074219 159.828125 78.070312 C 159.511719 78.0625 159.203125 77.996094 158.910156 77.867188 C 158.617188 77.742188 158.359375 77.566406 158.136719 77.339844 C 157.898438 77.121094 157.710938 76.863281 157.574219 76.570312 C 157.4375 76.273438 157.367188 75.964844 157.355469 75.640625 C 157.347656 75.320312 157.402344 75.007812 157.519531 74.703125 C 157.636719 74.402344 157.808594 74.132812 158.035156 73.902344 C 158.871094 72.96875 159.761719 72.089844 160.703125 71.265625 C 161.179688 70.949219 161.691406 70.699219 162.234375 70.515625 C 162.753906 70.527344 163.230469 70.675781 163.667969 70.960938 C 164.101562 71.242188 164.429688 71.617188 164.648438 72.085938 C 164.882812 72.519531 164.964844 72.976562 164.894531 73.464844 C 164.828125 73.949219 164.621094 74.367188 164.273438 74.71875 C 163.414062 75.667969 162.507812 76.566406 161.554688 77.421875 Z M 167.128906 82.984375 C 166.757812 83.328125 166.320312 83.535156 165.816406 83.597656 C 165.3125 83.660156 164.839844 83.574219 164.394531 83.332031 C 163.441406 82.886719 163.003906 82.09375 162.96875 80.730469 C 163.136719 80.261719 163.367188 79.828125 163.660156 79.421875 C 164.457031 78.527344 165.296875 77.679688 166.183594 76.878906 C 166.417969 76.652344 166.6875 76.480469 166.988281 76.359375 C 167.289062 76.238281 167.601562 76.175781 167.925781 76.171875 C 168.25 76.167969 168.566406 76.222656 168.867188 76.339844 C 169.171875 76.453125 169.445312 76.621094 169.683594 76.839844 C 169.933594 77.058594 170.128906 77.320312 170.269531 77.621094 C 170.410156 77.921875 170.488281 78.238281 170.5 78.570312 C 170.507812 78.902344 170.453125 79.222656 170.332031 79.53125 C 170.210938 79.839844 170.035156 80.113281 169.800781 80.351562 C 168.953125 81.273438 168.0625 82.152344 167.128906 82.984375 Z M 172.917969 88.371094 C 172.683594 88.613281 172.40625 88.800781 172.09375 88.933594 C 171.785156 89.070312 171.457031 89.136719 171.117188 89.140625 C 170.777344 89.144531 170.449219 89.082031 170.136719 88.957031 C 169.820312 88.832031 169.542969 88.648438 169.300781 88.410156 C 169.058594 88.171875 168.875 87.894531 168.75 87.582031 C 168.621094 87.269531 168.558594 86.945312 168.566406 86.609375 C 168.570312 86.269531 168.640625 85.949219 168.777344 85.636719 C 168.914062 85.328125 169.105469 85.058594 169.355469 84.828125 C 170.144531 84.011719 170.945312 83.195312 171.789062 82.425781 C 172.148438 82.050781 172.585938 81.816406 173.097656 81.726562 C 173.609375 81.632812 174.101562 81.699219 174.570312 81.929688 C 175.570312 82.375 176.003906 83.191406 176.105469 84.550781 C 175.886719 85.070312 175.613281 85.558594 175.28125 86.011719 C 174.535156 86.839844 173.75 87.628906 172.917969 88.371094 Z M 180.96875 91.460938 C 180.160156 92.34375 179.308594 93.183594 178.410156 93.972656 C 177.976562 94.277344 177.507812 94.519531 177.011719 94.699219 C 176.480469 94.742188 175.984375 94.640625 175.519531 94.390625 C 175.054688 94.136719 174.699219 93.777344 174.453125 93.3125 C 174.203125 92.902344 174.101562 92.460938 174.140625 91.988281 C 174.179688 91.511719 174.355469 91.09375 174.664062 90.730469 C 175.578125 89.679688 176.5625 88.703125 177.617188 87.792969 C 177.859375 87.585938 178.132812 87.433594 178.4375 87.335938 C 178.738281 87.238281 179.050781 87.203125 179.371094 87.230469 C 179.6875 87.253906 179.988281 87.339844 180.273438 87.484375 C 180.558594 87.628906 180.800781 87.824219 181.007812 88.066406 C 181.222656 88.296875 181.390625 88.558594 181.503906 88.855469 C 181.617188 89.148438 181.671875 89.457031 181.667969 89.773438 C 181.664062 90.085938 181.601562 90.390625 181.480469 90.683594 C 181.359375 90.976562 181.1875 91.234375 180.96875 91.460938 Z M 207.582031 77.996094 C 207.339844 78.234375 207.0625 78.414062 206.742188 78.539062 L 206.671875 78.566406 C 206.152344 78.71875 205.628906 78.722656 205.105469 78.570312 C 204.582031 78.417969 204.144531 78.136719 203.789062 77.726562 C 200.15625 74.152344 196.535156 70.566406 192.917969 66.972656 C 192.800781 66.855469 192.691406 66.726562 192.5625 66.621094 C 192.425781 66.476562 192.265625 66.367188 192.082031 66.289062 C 191.902344 66.210938 191.710938 66.171875 191.511719 66.167969 C 191.3125 66.167969 191.121094 66.203125 190.9375 66.277344 C 190.753906 66.351562 190.59375 66.460938 190.453125 66.601562 C 190.320312 66.742188 190.226562 66.902344 190.160156 67.082031 C 190.097656 67.261719 190.070312 67.449219 190.082031 67.636719 C 190.09375 67.828125 190.144531 68.011719 190.230469 68.179688 C 190.316406 68.351562 190.429688 68.5 190.578125 68.625 C 191.566406 69.644531 192.59375 70.625 193.601562 71.625 C 196.410156 74.410156 199.226562 77.1875 202.019531 79.988281 C 202.214844 80.183594 202.371094 80.402344 202.496094 80.644531 C 202.617188 80.890625 202.699219 81.148438 202.734375 81.417969 C 202.773438 81.6875 202.765625 81.957031 202.710938 82.226562 C 202.660156 82.496094 202.566406 82.746094 202.429688 82.984375 C 202.300781 83.21875 202.136719 83.425781 201.9375 83.605469 C 201.742188 83.785156 201.519531 83.929688 201.269531 84.035156 C 201.023438 84.140625 200.769531 84.207031 200.5 84.226562 C 200.230469 84.246094 199.96875 84.226562 199.707031 84.160156 C 199.167969 84.007812 198.695312 83.734375 198.296875 83.34375 C 194.628906 79.757812 190.996094 76.144531 187.351562 72.542969 C 187.199219 72.382812 187.035156 72.230469 186.863281 72.089844 C 186.730469 71.960938 186.578125 71.867188 186.402344 71.800781 C 186.230469 71.734375 186.054688 71.703125 185.871094 71.707031 C 185.683594 71.710938 185.507812 71.746094 185.339844 71.816406 C 185.167969 71.890625 185.019531 71.988281 184.886719 72.121094 C 184.753906 72.246094 184.652344 72.394531 184.578125 72.5625 C 184.507812 72.730469 184.472656 72.910156 184.472656 73.09375 C 184.472656 73.277344 184.511719 73.453125 184.585938 73.621094 C 184.660156 73.789062 184.765625 73.933594 184.902344 74.058594 C 186.097656 75.308594 187.339844 76.507812 188.5625 77.722656 C 191.136719 80.273438 193.71875 82.816406 196.28125 85.375 C 196.527344 85.59375 196.726562 85.851562 196.875 86.148438 C 197.023438 86.441406 197.109375 86.753906 197.136719 87.085938 C 197.164062 87.414062 197.125 87.734375 197.027344 88.050781 C 196.929688 88.367188 196.773438 88.652344 196.566406 88.90625 C 196.335938 89.179688 196.0625 89.390625 195.742188 89.546875 C 195.425781 89.699219 195.085938 89.785156 194.734375 89.796875 C 194.378906 89.808594 194.035156 89.75 193.707031 89.617188 C 193.375 89.488281 193.085938 89.296875 192.839844 89.042969 C 191.011719 87.285156 189.230469 85.480469 187.421875 83.707031 C 186.644531 82.945312 185.851562 82.203125 185.0625 81.460938 C 184.957031 81.359375 184.84375 81.269531 184.726562 81.1875 L 180.339844 76.832031 C 180.210938 76.703125 180.0625 76.605469 179.894531 76.535156 C 179.726562 76.464844 179.550781 76.433594 179.371094 76.433594 C 179.1875 76.433594 179.015625 76.464844 178.847656 76.535156 C 178.679688 76.605469 178.53125 76.703125 178.402344 76.832031 C 178.273438 76.957031 178.171875 77.105469 178.105469 77.273438 C 178.035156 77.4375 178 77.613281 178 77.792969 C 178 77.972656 178.035156 78.148438 178.105469 78.3125 C 178.171875 78.480469 178.273438 78.628906 178.402344 78.753906 L 182.761719 83.089844 C 182.851562 83.21875 182.953125 83.339844 183.0625 83.453125 C 185.570312 85.949219 188.089844 88.429688 190.601562 90.925781 C 190.75 91.042969 190.878906 91.179688 190.996094 91.328125 C 191.113281 91.476562 191.210938 91.636719 191.289062 91.808594 C 191.367188 91.980469 191.425781 92.160156 191.464844 92.34375 C 191.503906 92.527344 191.523438 92.714844 191.519531 92.902344 C 191.515625 93.09375 191.492188 93.277344 191.445312 93.460938 C 191.402344 93.644531 191.335938 93.820312 191.25 93.988281 C 191.164062 94.15625 191.0625 94.3125 190.941406 94.457031 C 190.820312 94.605469 190.683594 94.734375 190.535156 94.847656 C 190.320312 95.023438 190.085938 95.15625 189.828125 95.25 C 189.566406 95.34375 189.300781 95.394531 189.023438 95.394531 C 188.75 95.398438 188.480469 95.355469 188.222656 95.265625 C 187.960938 95.179688 187.722656 95.050781 187.507812 94.878906 C 186.441406 93.941406 185.449219 92.921875 184.453125 91.910156 C 184.296875 91.710938 184.25 91.488281 184.304688 91.242188 C 184.414062 90.851562 184.484375 90.453125 184.503906 90.042969 C 184.523438 89.636719 184.496094 89.230469 184.425781 88.832031 C 184.351562 88.429688 184.234375 88.039062 184.074219 87.664062 C 183.910156 87.289062 183.710938 86.9375 183.464844 86.609375 C 183.222656 86.28125 182.945312 85.980469 182.636719 85.714844 C 182.324219 85.449219 181.984375 85.222656 181.621094 85.03125 C 181.257812 84.84375 180.878906 84.695312 180.480469 84.59375 C 180.082031 84.492188 179.679688 84.433594 179.269531 84.421875 C 179.167969 84.40625 179.066406 84.382812 178.96875 84.351562 C 178.695312 80.992188 176.832031 79.144531 173.382812 78.832031 C 173.082031 75.464844 171.25 73.597656 167.886719 73.304688 C 167.726562 72.492188 167.5 71.699219 167.203125 70.929688 C 167.027344 70.542969 166.8125 70.183594 166.554688 69.847656 C 166.292969 69.515625 165.996094 69.214844 165.664062 68.953125 C 165.332031 68.6875 164.972656 68.46875 164.585938 68.289062 C 164.203125 68.109375 163.800781 67.980469 163.382812 67.898438 C 162.964844 67.816406 162.542969 67.785156 162.121094 67.804688 C 161.695312 67.824219 161.277344 67.890625 160.871094 68.007812 C 160.460938 68.125 160.074219 68.292969 159.703125 68.5 C 159.335938 68.710938 158.996094 68.964844 158.691406 69.253906 C 157.5 70.304688 156.335938 71.386719 155.070312 72.535156 C 154.152344 71.582031 153.355469 70.539062 152.671875 69.40625 C 151.984375 68.277344 151.433594 67.085938 151.015625 65.832031 C 150.597656 64.578125 150.320312 63.296875 150.183594 61.984375 C 150.050781 60.671875 150.0625 59.359375 150.21875 58.050781 C 151.140625 49.90625 155.660156 44.378906 163.453125 41.746094 C 165.007812 41.230469 166.601562 40.921875 168.238281 40.824219 C 169.871094 40.730469 171.492188 40.847656 173.09375 41.175781 C 174.699219 41.507812 176.230469 42.039062 177.691406 42.773438 C 179.15625 43.511719 180.492188 44.421875 181.710938 45.511719 C 179.488281 47.710938 177.3125 49.867188 175.144531 52.023438 C 174.277344 52.890625 173.378906 53.734375 172.589844 54.664062 C 172.351562 54.953125 172.140625 55.257812 171.960938 55.585938 C 171.78125 55.910156 171.632812 56.25 171.515625 56.605469 C 171.398438 56.957031 171.3125 57.320312 171.265625 57.6875 C 171.214844 58.058594 171.203125 58.429688 171.222656 58.800781 C 171.242188 59.171875 171.296875 59.539062 171.386719 59.898438 C 171.476562 60.261719 171.597656 60.609375 171.753906 60.949219 C 171.90625 61.289062 172.09375 61.609375 172.308594 61.914062 C 172.523438 62.21875 172.765625 62.503906 173.035156 62.761719 C 173.300781 63.023438 173.589844 63.257812 173.902344 63.464844 C 174.214844 63.671875 174.539062 63.847656 174.882812 63.996094 C 175.226562 64.144531 175.582031 64.257812 175.949219 64.34375 C 176.3125 64.425781 176.683594 64.472656 177.058594 64.488281 C 177.433594 64.503906 177.804688 64.484375 178.175781 64.429688 C 178.546875 64.378906 178.910156 64.292969 179.265625 64.171875 C 179.617188 64.054688 179.960938 63.902344 180.285156 63.722656 C 180.613281 63.539062 180.921875 63.328125 181.210938 63.089844 C 182.214844 62.21875 186.226562 58.308594 188.816406 55.808594 C 194.050781 60.984375 203.308594 70.160156 207.410156 74.238281 C 207.695312 74.464844 207.921875 74.734375 208.085938 75.054688 C 208.253906 75.378906 208.34375 75.71875 208.359375 76.078125 C 208.378906 76.4375 208.316406 76.785156 208.183594 77.121094 C 208.046875 77.457031 207.847656 77.746094 207.582031 77.996094 Z M 217.527344 61.089844 C 217.226562 64.296875 216.21875 67.261719 214.496094 69.984375 C 213.996094 70.742188 213.457031 71.46875 212.875 72.164062 C 212.296875 72.859375 211.707031 73.527344 211.175781 74.191406 C 210.386719 73.375 209.636719 72.585938 208.898438 71.816406 C 208.898438 71.816406 207.839844 70.726562 206.691406 69.554688 C 205.042969 67.878906 198.183594 61.074219 188.808594 51.851562 C 187.023438 53.632812 180.808594 59.644531 179.578125 60.792969 C 179.304688 61.058594 178.992188 61.265625 178.644531 61.417969 C 178.296875 61.570312 177.929688 61.660156 177.550781 61.6875 C 177.167969 61.710938 176.796875 61.671875 176.429688 61.5625 C 176.0625 61.457031 175.726562 61.292969 175.421875 61.066406 C 175.222656 60.925781 175.042969 60.769531 174.878906 60.589844 C 174.71875 60.410156 174.578125 60.214844 174.460938 60.003906 C 174.339844 59.792969 174.246094 59.574219 174.179688 59.34375 C 174.109375 59.113281 174.066406 58.875 174.050781 58.636719 C 174.035156 58.394531 174.046875 58.15625 174.085938 57.917969 C 174.121094 57.679688 174.1875 57.449219 174.273438 57.226562 C 174.363281 57 174.476562 56.789062 174.617188 56.589844 C 174.753906 56.394531 174.910156 56.210938 175.089844 56.046875 C 177.726562 53.40625 180.402344 50.804688 183.039062 48.164062 C 184.785156 46.226562 186.785156 44.589844 189.035156 43.265625 C 191.878906 41.722656 194.921875 40.914062 198.160156 40.839844 C 201.332031 40.929688 204.355469 41.640625 207.230469 42.976562 C 208.285156 43.449219 209.269531 44.035156 210.183594 44.738281 C 210.882812 45.289062 211.539062 45.890625 212.144531 46.539062 C 212.757812 47.171875 213.316406 47.851562 213.820312 48.574219 C 214.378906 49.394531 214.882812 50.246094 215.332031 51.132812 C 217.011719 54.246094 217.746094 57.566406 217.527344 61.089844 Z M 217.527344 61.089844 " fill-opacity="1" fill-rule="nonzero"/></g></svg>